<svg width="39" height="39" viewBox="0 0 39 39" fill="none" xmlns="http://www.w3.org/2000/svg">
<ellipse cx="20.0519" cy="18.5972" rx="15.6368" ry="15.3472" fill="#F0F0F0"/>
<path d="M29.7959 17.4167L22.1292 10.75C21.7459 10.4167 21.1709 10.4167 20.7875 10.75C20.5959 10.9167 20.5 11.0833 20.5 11.3333V14.25C15.0375 14.6667 10.9167 18.6667 10.9167 23.4167V24.6667C10.9167 25.1667 11.3 25.5 11.875 25.5C12.1625 25.5 12.45 25.4167 12.6417 25.1667C14.5584 23.1667 17.2417 22 20.2125 21.8333C20.2125 21.8333 20.4042 21.8333 20.5 21.8333V24.6667C20.5 25.1667 20.8834 25.5 21.4584 25.5C21.7459 25.5 21.9375 25.4167 22.1292 25.25L29.7959 18.5833C30.1792 18.25 30.1792 17.75 29.7959 17.4167Z" fill="#141A2D"/>
</svg>
