<svg width="29" height="29" viewBox="0 0 29 29" fill="none" xmlns="http://www.w3.org/2000/svg">
<path d="M14.5 8.471L14.5 20.529C14.5 21.449 13.498 22.018 12.708 21.548L2.579 15.519C1.807 15.059 1.807 13.941 2.579 13.481L12.708 7.452C12.888 7.345 13.0932 7.28757 13.3026 7.28555C13.512 7.28353 13.7182 7.337 13.9003 7.44052C14.0823 7.54404 14.2337 7.69392 14.339 7.87492C14.4444 8.05592 14.4999 8.26158 14.5 8.471Z" fill="#C2C2C2"/>
<path d="M27 8.471V20.529C27 21.449 25.998 22.018 25.208 21.548L15.079 15.519C14.307 15.059 14.307 13.941 15.079 13.481L25.208 7.452C25.388 7.345 25.5932 7.28757 25.8026 7.28555C26.012 7.28353 26.2182 7.337 26.4003 7.44052C26.5823 7.54404 26.7337 7.69392 26.839 7.87492C26.9444 8.05592 26.9999 8.26158 27 8.471Z" fill="#C2C2C2"/>
</svg>
