<svg width="29" height="29" viewBox="0 0 29 29" fill="none" xmlns="http://www.w3.org/2000/svg">
<path d="M14.5 20.529V8.471C14.5 7.551 15.502 6.982 16.292 7.452L26.421 13.481C27.193 13.941 27.193 15.059 26.421 15.519L16.292 21.548C16.112 21.655 15.9068 21.7124 15.6974 21.7145C15.488 21.7165 15.2818 21.663 15.0997 21.5595C14.9177 21.456 14.7663 21.3061 14.661 21.1251C14.5556 20.9441 14.5001 20.7384 14.5 20.529Z" fill="#C2C2C2"/>
<path d="M2 20.529V8.471C2 7.551 3.002 6.982 3.792 7.452L13.921 13.481C14.693 13.941 14.693 15.059 13.921 15.519L3.792 21.548C3.61198 21.655 3.40684 21.7124 3.19742 21.7145C2.98801 21.7165 2.7818 21.663 2.59975 21.5595C2.4177 21.456 2.26631 21.3061 2.16097 21.1251C2.05562 20.9441 2.00009 20.7384 2 20.529Z" fill="#C2C2C2"/>
</svg>
