<svg width="20" height="20" viewBox="0 0 20 20" fill="none" xmlns="http://www.w3.org/2000/svg">
<path d="M5.07499 15.8333H15.075L13.9917 16.9083C13.8347 17.0653 13.7466 17.2781 13.7466 17.5C13.7466 17.7219 13.8347 17.9347 13.9917 18.0917C14.1486 18.2486 14.3614 18.3367 14.5833 18.3367C14.8052 18.3367 15.0181 18.2486 15.175 18.0917L17.675 15.5917C17.7531 15.5142 17.8151 15.422 17.8574 15.3205C17.8997 15.2189 17.9215 15.11 17.9215 15C17.9215 14.89 17.8997 14.7811 17.8574 14.6795C17.8151 14.578 17.7531 14.4858 17.675 14.4083L15.175 11.9083C15.0975 11.8302 15.0054 11.7682 14.9038 11.7259C14.8023 11.6836 14.6933 11.6618 14.5833 11.6618C14.4733 11.6618 14.3644 11.6836 14.2628 11.7259C14.1613 11.7682 14.0691 11.8302 13.9917 11.9083C13.9136 11.9858 13.8516 12.078 13.8092 12.1795C13.7669 12.2811 13.7452 12.39 13.7452 12.5C13.7452 12.61 13.7669 12.7189 13.8092 12.8205C13.8516 12.922 13.9136 13.0142 13.9917 13.0917L15.075 14.1667H5.07499C4.90426 14.17 4.73456 14.1396 4.57556 14.0773C4.41657 14.0151 4.2714 13.9221 4.14836 13.8037C4.02532 13.6853 3.9268 13.5438 3.85845 13.3873C3.7901 13.2308 3.75324 13.0624 3.74999 12.8917V10.8333C3.74999 10.6123 3.66219 10.4004 3.50591 10.2441C3.34963 10.0878 3.13767 10 2.91666 10C2.69564 10 2.48368 10.0878 2.3274 10.2441C2.17112 10.4004 2.08332 10.6123 2.08332 10.8333V12.8917C2.08659 13.2813 2.16657 13.6664 2.31869 14.0251C2.4708 14.3838 2.69208 14.709 2.96989 14.9821C3.24769 15.2553 3.57658 15.4711 3.93778 15.6171C4.29897 15.7632 4.6854 15.8366 5.07499 15.8333ZM4.82499 8.09167C4.98191 8.24859 5.19474 8.33674 5.41666 8.33674C5.63857 8.33674 5.8514 8.24859 6.00832 8.09167C6.16524 7.93475 6.2534 7.72192 6.2534 7.5C6.2534 7.27808 6.16524 7.06525 6.00832 6.90833L4.92499 5.83333H14.925C15.0957 5.83002 15.2654 5.86037 15.4244 5.92266C15.5834 5.98494 15.7286 6.07794 15.8516 6.19634C15.9747 6.31475 16.0732 6.45623 16.1415 6.61271C16.2099 6.76919 16.2467 6.9376 16.25 7.10833V9.16667C16.25 9.38768 16.3378 9.59964 16.4941 9.75592C16.6503 9.9122 16.8623 10 17.0833 10C17.3043 10 17.5163 9.9122 17.6726 9.75592C17.8289 9.59964 17.9167 9.38768 17.9167 9.16667V7.10833C17.9134 6.71874 17.8334 6.33361 17.6813 5.97493C17.5292 5.61624 17.3079 5.29104 17.0301 5.01787C16.7523 4.74471 16.4234 4.52895 16.0622 4.3829C15.701 4.23684 15.3146 4.16337 14.925 4.16667H4.92499L6.00832 3.09167C6.08643 3.0142 6.14843 2.92203 6.19073 2.82048C6.23304 2.71893 6.25482 2.61001 6.25482 2.5C6.25482 2.38999 6.23304 2.28107 6.19073 2.17952C6.14843 2.07797 6.08643 1.9858 6.00832 1.90833C5.93085 1.83023 5.83869 1.76823 5.73714 1.72592C5.63559 1.68362 5.52667 1.66183 5.41666 1.66183C5.30665 1.66183 5.19773 1.68362 5.09618 1.72592C4.99463 1.76823 4.90246 1.83023 4.82499 1.90833L2.32499 4.40833C2.24688 4.4858 2.18489 4.57797 2.14258 4.67952C2.10027 4.78107 2.07849 4.88999 2.07849 5C2.07849 5.11001 2.10027 5.21893 2.14258 5.32048C2.18489 5.42203 2.24688 5.5142 2.32499 5.59167L4.82499 8.09167Z" fill="#C2C2C2"/>
</svg>
