<svg width="39" height="39" viewBox="0 0 39 39" fill="none" xmlns="http://www.w3.org/2000/svg">
<ellipse cx="20.0519" cy="18.5972" rx="15.6368" ry="15.3472" fill="white"/>
<path d="M27.5625 18.6875C28.7017 18.6875 29.625 19.6108 29.625 20.75V23.5C29.625 24.6392 28.7017 25.5625 27.5625 25.5625H24.4688C24.279 25.5625 24.125 25.4085 24.125 25.2188V19.0312C24.125 18.8415 24.279 18.6875 24.4688 18.6875H25.5V17.3125C25.5 14.6546 23.3454 12.5 20.6875 12.5H19.3125C16.6546 12.5 14.5 14.6546 14.5 17.3125V18.6875H15.5312C15.721 18.6875 15.875 18.8415 15.875 19.0312V25.2188C15.875 25.4085 15.721 25.5625 15.5312 25.5625H12.4375C11.2983 25.5625 10.375 24.6392 10.375 23.5V20.75C10.375 19.6108 11.2983 18.6875 12.4375 18.6875V17.3125C12.4375 13.5154 15.5154 10.4375 19.3125 10.4375H20.6875C24.4846 10.4375 27.5625 13.5154 27.5625 17.3125V18.6875Z" fill="#141A2D"/>
<path d="M22.4063 19.6232C22.4063 19.4754 22.3141 19.3448 22.1739 19.298C21.7738 19.1646 20.968 18.8931 20.6518 18.7597C20.4324 18.6676 20.1849 18.6641 19.9828 18.7899C19.78 18.9158 19.6563 19.1364 19.6563 19.375V22.1601C18.7659 21.9786 17.8853 22.5196 17.657 23.3728C17.3243 24.6144 18.3569 25.7289 19.5813 25.5426C20.3864 25.4202 21.0313 24.5753 21.0313 23.7606V20.75H22.0625C22.2523 20.75 22.4063 20.596 22.4063 20.4063V19.6232Z" fill="#141A2D"/>
</svg>
