<svg width="15" height="16" viewBox="0 0 15 16" fill="none" xmlns="http://www.w3.org/2000/svg">
<g clip-path="url(#clip0_2_126)">
<path fill-rule="evenodd" clip-rule="evenodd" d="M2.5 0C1.83696 0 1.20107 0.210714 0.732233 0.585786C0.263392 0.960859 0 1.46957 0 2L0 14C0 14.5304 0.263392 15.0391 0.732233 15.4142C1.20107 15.7893 1.83696 16 2.5 16C3.16304 16 3.79893 15.7893 4.26777 15.4142C4.73661 15.0391 5 14.5304 5 14V2C5 1.46957 4.73661 0.960859 4.26777 0.585786C3.79893 0.210714 3.16304 0 2.5 0M15 2V14C15 14.5304 14.7366 15.0391 14.2678 15.4142C13.7989 15.7893 13.163 16 12.5 16C11.837 16 11.2011 15.7893 10.7322 15.4142C10.2634 15.0391 10 14.5304 10 14V2C10 1.46957 10.2634 0.960859 10.7322 0.585786C11.2011 0.210714 11.837 0 12.5 0C13.163 0 13.7989 0.210714 14.2678 0.585786C14.7366 0.960859 15 1.46957 15 2Z" fill="#C2C2C2"/>
</g>
<defs>
<clipPath id="clip0_2_126">
<rect width="15" height="16" fill="white"/>
</clipPath>
</defs>
</svg>
