<svg width="27" height="26" viewBox="0 0 27 26" fill="none" xmlns="http://www.w3.org/2000/svg">
<path d="M5.5 22.8125C5.11112 22.8125 4.72437 22.7094 4.38225 22.5052C4.0745 22.3198 3.82051 22.0614 3.64426 21.7543C3.46802 21.4472 3.37535 21.1015 3.375 20.75V4.25C3.375 3.53431 3.7575 2.87018 4.38225 2.49481C4.69068 2.31075 5.04228 2.20586 5.40397 2.18998C5.76567 2.17411 6.12558 2.24777 6.44987 2.40406L23.4499 10.6541C23.8028 10.8257 24.0996 11.0892 24.3071 11.4152C24.5145 11.7412 24.6244 12.1168 24.6244 12.5C24.6244 12.8832 24.5145 13.2588 24.3071 13.5848C24.0996 13.9108 23.8028 14.1743 23.4499 14.3459L6.44987 22.5959C6.15237 22.7403 5.823 22.8125 5.5 22.8125V22.8125Z" fill="#C2C2C2"/>
</svg>
