<svg width="39" height="39" viewBox="0 0 39 39" fill="none" xmlns="http://www.w3.org/2000/svg">
<ellipse cx="20.0519" cy="18.5972" rx="15.6368" ry="15.3472" fill="#F0F0F0"/>
<path d="M29.7959 16.8875L22.1292 9.8875C21.7459 9.5375 21.1709 9.5375 20.7875 9.8875C20.5959 10.0625 20.5 10.2375 20.5 10.5V13.5625C15.0375 14 10.9167 18.2 10.9167 23.1875V24.5C10.9167 25.025 11.3 25.375 11.875 25.375C12.1625 25.375 12.45 25.2875 12.6417 25.025C14.5584 22.925 17.2417 21.7 20.2125 21.525C20.2125 21.525 20.4042 21.525 20.5 21.525V24.5C20.5 25.025 20.8834 25.375 21.4584 25.375C21.7459 25.375 21.9375 25.2875 22.1292 25.1125L29.7959 18.1125C30.1792 17.7625 30.1792 17.2375 29.7959 16.8875Z" fill="#141A2D"/>
</svg>
