<svg width="18" height="18" viewBox="0 0 18 18" fill="none" xmlns="http://www.w3.org/2000/svg">
<path d="M13.71 6.2775C13.5847 6.12234 13.4029 6.02333 13.2045 6.00223C13.0062 5.98113 12.8076 6.03968 12.6525 6.165C12.4973 6.29031 12.3983 6.47213 12.3772 6.67045C12.3561 6.86877 12.4147 7.06734 12.54 7.2225C12.9189 7.73768 13.1233 8.36047 13.1233 9C13.1233 9.63952 12.9189 10.2623 12.54 10.7775C12.4506 10.8877 12.3943 11.021 12.3776 11.162C12.361 11.3029 12.3846 11.4457 12.4459 11.5737C12.5072 11.7018 12.6035 11.8098 12.7237 11.8852C12.8439 11.9607 12.9831 12.0005 13.125 12C13.237 12.0004 13.3477 11.9756 13.449 11.9276C13.5502 11.8796 13.6394 11.8095 13.71 11.7225C14.3049 10.9396 14.627 9.98331 14.627 9C14.627 8.01668 14.3049 7.06043 13.71 6.2775Z" fill="#C2C2C2"/>
<path d="M14.73 3.9225C14.6542 3.85946 14.5667 3.81198 14.4725 3.78277C14.3783 3.75356 14.2793 3.74318 14.1811 3.75223C14.0829 3.76129 13.9874 3.78959 13.9002 3.83554C13.8129 3.88148 13.7355 3.94416 13.6725 4.02C13.6095 4.09584 13.562 4.18335 13.5328 4.27754C13.5036 4.37172 13.4932 4.47074 13.5022 4.56894C13.5113 4.66714 13.5396 4.76259 13.5856 4.84985C13.6315 4.93711 13.6942 5.01446 13.77 5.0775C14.3715 5.5424 14.8615 6.1359 15.2041 6.81458C15.5467 7.49326 15.7332 8.23994 15.75 9C15.7332 9.76005 15.5467 10.5067 15.2041 11.1854C14.8615 11.8641 14.3715 12.4576 13.77 12.9225C13.6941 12.9855 13.6313 13.0628 13.5853 13.15C13.5393 13.2373 13.5109 13.3328 13.5019 13.431C13.4928 13.5293 13.5032 13.6283 13.5325 13.7225C13.5618 13.8167 13.6094 13.9042 13.6725 13.98C13.743 14.0647 13.8313 14.1327 13.9312 14.1794C14.031 14.2261 14.1398 14.2502 14.25 14.25C14.4253 14.2503 14.5951 14.1893 14.73 14.0775C15.5028 13.4733 16.1304 12.7036 16.5665 11.8249C17.0026 10.9462 17.2362 9.98087 17.25 9C17.2362 8.01913 17.0026 7.05383 16.5665 6.17513C16.1304 5.29643 15.5028 4.52668 14.73 3.9225ZM11.25 2.34C11.136 2.27417 11.0067 2.23952 10.875 2.23952C10.7434 2.23952 10.614 2.27417 10.5 2.34L5.64002 5.6775H1.89001C1.6911 5.6775 1.50034 5.75652 1.35968 5.89717C1.21903 6.03782 1.14001 6.22859 1.14001 6.4275V11.5725C1.14001 11.7714 1.21903 11.9622 1.35968 12.1028C1.50034 12.2435 1.6911 12.3225 1.89001 12.3225H5.64002L10.4475 15.6225C10.5749 15.7049 10.7233 15.7492 10.875 15.75C11.0739 15.75 11.2647 15.671 11.4053 15.5303C11.546 15.3897 11.625 15.1989 11.625 15V3C11.6269 2.86657 11.5931 2.73507 11.5272 2.61905C11.4613 2.50303 11.3656 2.4067 11.25 2.34ZM10.1475 13.59L6.30001 10.95C6.17375 10.8651 6.02465 10.8207 5.87252 10.8225H2.62501V7.1775H5.87252C6.02465 7.17934 6.17375 7.13488 6.30001 7.05L10.125 4.425L10.1475 13.59Z" fill="#C2C2C2"/>
</svg>
